<svg xmlns="http://www.w3.org/2000/svg" xmlns:xlink="http://www.w3.org/1999/xlink" width="744.667" height="740.277" viewBox="0 0 744.667 740.277">
  <defs>
    <linearGradient id="linear-gradient" x1="0.5" x2="0.5" y2="1" gradientUnits="objectBoundingBox">
      <stop offset="0" stop-color="#09a8ba" stop-opacity="0.502"/>
      <stop offset="1" stop-color="#7218d8" stop-opacity="0.502"/>
    </linearGradient>
  </defs>
  <g id="_500px_COLOR_1" data-name="500px_COLOR_1" transform="translate(-2.065 474.913)">
    <path id="Path_123" data-name="Path 123" d="M87.271-472.7c-42.106,9.079-74.038,41.636-82.8,84.055-2.974,14.244-3.131,25.514-.783,38.193.939,5.009,22.54,61.828,47.741,126,25.357,64.176,46.019,117.865,46.019,119.431C97.445-103.609,76.94-50.546,51.9,13,2.9,137.131.868,143.549,2.433,165.149,4.781,193.481,13.7,212.89,34.051,233.4c11.74,11.9,16.279,15.34,27.392,20.662,31.619,15.183,65.742,14.87,97.047-.783,17.375-8.766,36.471-28.175,45.237-45.863,3.444-7.357,7.513-17.844,8.922-23.479,3.131-12.209,3.444-34.906.783-47.741-1.252-5.165-22.383-60.889-47.271-123.97-24.888-62.924-45.237-115.831-45.237-117.4,0-3.131,40.071-105.343,42.106-107.378,1.252-1.252,199.416,111.448,203.8,115.987,1.409,1.409,40.384,67.776,86.716,147.449s87.656,150.58,92.195,157.78c10.487,17.218,22.07,29.9,35.062,38.349,33.34,22.07,71.846,24.262,108,6.418,25.671-12.522,45.863-36.941,54.159-64.8,3.6-12.209,4.852-34.749,2.661-47.584S742.339,125.7,692.564-.144c-21.444-54.159-39.445-100.021-40.071-101.9-.783-2.661,10.644-33.81,44.3-118.961,24.888-63.55,46.019-118.335,46.958-121.779,7.044-27.549,1.409-59.481-14.714-83.9-38.975-58.385-120.683-64.646-168.267-12.835-10.644,11.74-20.349,29.9-24.575,45.863-3.287,12.992-3.444,38.349-.157,50.089,1.409,4.7,23.01,60.42,48.054,123.657l45.55,114.891L608.352-50.546c-11.9,29.9-22.07,54.472-22.853,54.472-2.348,0-199.1-113.013-202.7-116.457-1.878-1.878-40.541-66.994-85.777-144.945-104.874-180.477-100.178-172.65-110.2-183.451C162.248-467.692,122.49-480.371,87.271-472.7ZM127.5-452.979c15.34,3.131,30.523,11.74,42.732,23.949,19.253,19.566,27.862,43.515,24.731,69.811-1.252,11.427-4.383,20.662-21.6,64.176-10.957,28.018-20.192,51.028-20.349,51.341-.626.783-91.256-51.967-97.83-56.976-19.722-15.34-32.871-42.263-32.871-66.994,0-39.132,28.488-75.6,66.055-84.838C98.854-455.014,116.7-455.17,127.5-452.979Zm534.229.626c42.576,11.113,70.907,55.1,63.707,98.769-1.409,8.453-81.551,215.382-84.682,218.669-.626.626-20.036-46.645-43.045-104.874-30.836-78.107-42.419-108.943-43.515-116.926-6.261-41.636,23.166-85.621,63.863-95.482C630.422-455.17,650.458-455.17,661.728-452.353ZM282.3-242.918c34.593,59.168,62.455,108,62.142,108.317-.47.47-160.911-90.786-171.711-97.673-1.722-1.1,1.565-10.957,17.688-51.811,11.113-27.862,21.131-55.411,22.54-61.359,2.191-9.548,2.818-10.487,4.539-7.983C218.754-352.018,247.868-302.242,282.3-242.918ZM64.418-270.624c5.635,3.287,26.3,14.87,45.706,25.827L145.656-224.6l-17.062,43.2c-19.879,50.4-19.566,49.463-21.131,45.236-2.974-8.3-54.315-137.9-54.941-139C51.269-277.355,54.243-276.259,64.418-270.624ZM150.352,26.622c22.383,56.82,41.636,106.126,42.732,109.569,1.252,3.757,2.035,12.992,2.035,23.479,0,15.183-.626,18.47-4.539,28.175-10.957,27.236-30.679,46.019-56.976,54-14.244,4.539-36.627,4.226-50.4-.47-31.932-10.957-55.1-37.88-59.637-69.811-3.444-23.323-2.974-24.731,43.515-142.6C90.088-29.571,109.028-77.312,109.341-77,109.5-76.842,127.968-30.2,150.352,26.622ZM577.985,24.9c0,.783-8.766,23.792-19.409,50.872-10.8,27.236-20.349,52.906-21.444,57.289-.939,4.226-2.348,9.548-2.817,11.427-.783,3.131-12.992-16.748-65.9-107.691C432.728-24.406,403.3-75.277,402.987-75.9c-.313-.783,38.975,21.288,87.186,48.993C538.54.639,577.985,23.961,577.985,24.9ZM669.241-5.153c15.34,38.819,27.549,70.907,27.079,71.22-.939.939-2.035.313-49.776-26.766C623.378,26.309,604.6,15.2,604.6,14.413c0-2.191,35.062-90.317,35.845-90.317C640.909-75.9,653.9-44.128,669.241-5.153ZM644.353,61.372C669.4,75.616,693.19,90.016,697.259,93.46c9.079,7.513,20.505,24.262,25.044,36.471,4.07,11.27,5.635,35.532,2.974,47.584-6.731,31.149-34.593,59.011-66.211,65.9-13.774,3.131-37.41,1.409-49.463-3.6-25.827-10.644-45.393-32.088-52.75-58.072-2.035-6.887-3.954-11.355-3.484-24.66l3.484-18.034,18.783-52.631c11.113-28.175,20.975-51.185,21.757-51.185S619.309,46.971,644.353,61.372Z" transform="translate(0)" fill="url(#linear-gradient)"/>
  </g>
</svg>
